<svg width="560" height="260" viewBox="0 0 560 260" fill="none" xmlns="http://www.w3.org/2000/svg">
  <rect x="8" y="8" width="544" height="244" rx="16" fill="#F8FBFF" stroke="#DDE8FA"/>
  <rect x="36" y="42" width="324" height="26" rx="13" fill="#E6EEFC"/>
  <rect x="36" y="82" width="264" height="18" rx="9" fill="#D5E3FA"/>
  <rect x="36" y="110" width="220" height="18" rx="9" fill="#D5E3FA"/>
  <rect x="36" y="166" width="168" height="34" rx="17" fill="#DBEAFE"/>
  <circle cx="66" cy="183" r="8" fill="#2563EB"/>
  <rect x="84" y="177" width="94" height="12" rx="6" fill="#BED5FF"/>

  <circle cx="426" cy="128" r="72" fill="#EFF6FF" stroke="#C9DBFF" stroke-width="2"/>
  <path d="M426 86L468 105V134C468 165 449 190 426 200C403 190 384 165 384 134V105L426 86Z" fill="#2563EB"/>
  <path d="M412 136L422 148L442 124" stroke="white" stroke-width="8" stroke-linecap="round" stroke-linejoin="round"/>
</svg>
