<svg width="640" height="240" viewBox="0 0 640 240" fill="none" xmlns="http://www.w3.org/2000/svg">
  <rect x="8" y="8" width="624" height="224" rx="16" fill="#F8FBFF" stroke="#DDE8FA"/>

  <rect x="40" y="54" width="170" height="130" rx="12" fill="#FFFFFF" stroke="#D8E4F8"/>
  <rect x="234" y="54" width="170" height="130" rx="12" fill="#FFFFFF" stroke="#D8E4F8"/>
  <rect x="428" y="54" width="170" height="130" rx="12" fill="#FFFFFF" stroke="#D8E4F8"/>

  <rect x="64" y="80" width="94" height="10" rx="5" fill="#BED5FF"/>
  <rect x="64" y="100" width="120" height="9" rx="4.5" fill="#D5E3FA"/>
  <rect x="64" y="116" width="104" height="9" rx="4.5" fill="#D5E3FA"/>
  <rect x="64" y="138" width="84" height="28" rx="14" fill="#DBEAFE"/>

  <rect x="258" y="80" width="94" height="10" rx="5" fill="#BED5FF"/>
  <rect x="258" y="100" width="120" height="9" rx="4.5" fill="#D5E3FA"/>
  <rect x="258" y="116" width="104" height="9" rx="4.5" fill="#D5E3FA"/>
  <rect x="258" y="138" width="94" height="28" rx="14" fill="#EEF5FF"/>
  <circle cx="286" cy="152" r="6" fill="#2563EB"/>

  <rect x="452" y="80" width="94" height="10" rx="5" fill="#BED5FF"/>
  <rect x="452" y="100" width="120" height="9" rx="4.5" fill="#D5E3FA"/>
  <rect x="452" y="116" width="104" height="9" rx="4.5" fill="#D5E3FA"/>
  <rect x="452" y="138" width="100" height="28" rx="14" fill="#EAF6EC"/>
  <circle cx="480" cy="152" r="6" fill="#059669"/>

  <path d="M210 119H234" stroke="#AEC4E8" stroke-width="3" stroke-dasharray="6 6"/>
  <path d="M404 119H428" stroke="#AEC4E8" stroke-width="3" stroke-dasharray="6 6"/>
  <circle cx="222" cy="119" r="5" fill="#2563EB"/>
  <circle cx="416" cy="119" r="5" fill="#2563EB"/>
</svg>
