<svg width="640" height="300" viewBox="0 0 640 300" fill="none" xmlns="http://www.w3.org/2000/svg">
  <rect x="8" y="8" width="624" height="284" rx="16" fill="#F8FBFF" stroke="#DDE8FA"/>
  <rect x="40" y="106" width="158" height="88" rx="12" fill="#FFFFFF" stroke="#D8E4F8"/>
  <rect x="242" y="106" width="158" height="88" rx="12" fill="#FFFFFF" stroke="#D8E4F8"/>
  <rect x="444" y="106" width="158" height="88" rx="12" fill="#FFFFFF" stroke="#D8E4F8"/>
  <rect x="68" y="134" width="102" height="12" rx="6" fill="#BED5FF"/>
  <rect x="270" y="134" width="102" height="12" rx="6" fill="#BED5FF"/>
  <rect x="472" y="134" width="102" height="12" rx="6" fill="#BED5FF"/>
  <rect x="68" y="154" width="84" height="10" rx="5" fill="#D5E3FA"/>
  <rect x="270" y="154" width="84" height="10" rx="5" fill="#D5E3FA"/>
  <rect x="472" y="154" width="84" height="10" rx="5" fill="#D5E3FA"/>
  <path d="M198 150H242" stroke="#AFC5EA" stroke-width="4" stroke-dasharray="8 8"/>
  <path d="M400 150H444" stroke="#AFC5EA" stroke-width="4" stroke-dasharray="8 8"/>
  <circle cx="220" cy="150" r="6" fill="#2563EB"/>
  <circle cx="422" cy="150" r="6" fill="#2563EB"/>
</svg>
