<svg width="920" height="480" viewBox="0 0 920 480" fill="none" xmlns="http://www.w3.org/2000/svg">
  <rect x="8" y="8" width="904" height="464" rx="20" fill="#F7FAFF" stroke="#DCE7F8"/>

  <rect x="36" y="36" width="848" height="64" rx="14" fill="#EDF4FF"/>
  <rect x="62" y="58" width="202" height="14" rx="7" fill="#C2D7FF"/>
  <rect x="280" y="58" width="120" height="14" rx="7" fill="#D7E4FA"/>
  <rect x="414" y="58" width="86" height="14" rx="7" fill="#D7E4FA"/>
  <rect x="760" y="48" width="96" height="36" rx="18" fill="#DBEAFE"/>

  <rect x="36" y="124" width="404" height="150" rx="14" fill="#FFFFFF" stroke="#D8E4F8"/>
  <rect x="36" y="292" width="404" height="150" rx="14" fill="#FFFFFF" stroke="#D8E4F8"/>
  <rect x="458" y="124" width="426" height="150" rx="14" fill="#FFFFFF" stroke="#D8E4F8"/>
  <rect x="458" y="292" width="426" height="150" rx="14" fill="#FFFFFF" stroke="#D8E4F8"/>

  <rect x="66" y="154" width="182" height="12" rx="6" fill="#BED5FF"/>
  <rect x="66" y="176" width="318" height="10" rx="5" fill="#D5E3FA"/>
  <rect x="66" y="196" width="248" height="10" rx="5" fill="#D5E3FA"/>
  <rect x="66" y="224" width="106" height="30" rx="15" fill="#DBEAFE"/>
  <circle cx="94" cy="239" r="7" fill="#2563EB"/>

  <rect x="66" y="322" width="202" height="12" rx="6" fill="#BED5FF"/>
  <rect x="66" y="344" width="318" height="10" rx="5" fill="#D5E3FA"/>
  <rect x="66" y="364" width="278" height="10" rx="5" fill="#D5E3FA"/>
  <rect x="66" y="392" width="132" height="30" rx="15" fill="#EAF6EC"/>
  <circle cx="96" cy="407" r="7" fill="#059669"/>

  <rect x="488" y="154" width="198" height="12" rx="6" fill="#BED5FF"/>
  <rect x="488" y="176" width="356" height="10" rx="5" fill="#D5E3FA"/>
  <rect x="488" y="196" width="292" height="10" rx="5" fill="#D5E3FA"/>
  <rect x="488" y="222" width="112" height="30" rx="15" fill="#DBEAFE"/>
  <rect x="614" y="222" width="136" height="30" rx="15" fill="#EAF6EC"/>

  <rect x="488" y="322" width="194" height="12" rx="6" fill="#BED5FF"/>
  <rect x="488" y="344" width="356" height="10" rx="5" fill="#D5E3FA"/>
  <rect x="488" y="364" width="304" height="10" rx="5" fill="#D5E3FA"/>
  <rect x="488" y="390" width="356" height="32" rx="16" fill="#EEF5FF"/>
  <circle cx="520" cy="406" r="7" fill="#2563EB"/>
  <circle cx="668" cy="406" r="7" fill="#059669"/>
  <circle cx="814" cy="406" r="7" fill="#2563EB"/>
</svg>
